M48
; DRILL file {KiCad (5.1.6)-1} date 12/18/20 18:22:12
; FORMAT={-:-/ absolute / inch / decimal}
; #@! TF.CreationDate,2020-12-18T18:22:12+01:00
; #@! TF.GenerationSoftware,Kicad,Pcbnew,(5.1.6)-1
FMAT,2
INCH
T1C0.0315
T2C0.0374
T3C0.0394
T4C0.0433
%
G90
G05
T1
X3.91Y-2.35
X3.91Y-2.4484
X3.6961Y-2.8
X3.8882Y-2.8
X3.2Y-3.05
X3.2Y-3.35
X3.3Y-3.05
X3.3Y-3.35
X3.4Y-3.05
X3.4Y-3.35
X3.5Y-3.05
X3.5Y-3.35
X3.6Y-3.05
X3.6Y-3.35
X3.7Y-3.05
X3.7Y-3.35
X3.8Y-3.05
X3.8Y-3.35
X3.9Y-3.05
X3.9Y-3.35
X4.0Y-3.05
X4.0Y-3.35
X4.1Y-3.05
X4.1Y-3.35
X4.2Y-3.05
X4.2Y-3.35
X4.3Y-3.05
X4.3Y-3.35
X4.4Y-3.05
X4.4Y-3.35
X4.5Y-3.05
X4.5Y-3.35
X3.4Y-2.0
X3.4Y-2.0984
X3.2961Y-1.822
X3.4929Y-1.822
X3.8Y-3.8
X4.2Y-3.8
X4.0047Y-1.7827
X4.0047Y-2.1827
X4.1Y-2.7
X4.1Y-2.8969
X4.75Y-3.05
X4.75Y-3.45
X3.45Y-2.7031
X3.45Y-2.9
X3.8079Y-1.7827
X3.8079Y-2.1827
T2
X5.0Y-1.8
X5.0984Y-1.8
X5.1969Y-1.8
X4.35Y-2.2
X4.4484Y-2.2
X4.5469Y-2.2
X4.6453Y-2.2
X5.0Y-3.0
X5.0984Y-3.0
X5.1969Y-3.0
X5.0Y-1.4
X5.0984Y-1.4
X5.1969Y-1.4
X4.35Y-1.8
X4.4484Y-1.8
X4.5469Y-1.8
X4.6453Y-1.8
X5.0Y-3.4
X5.0984Y-3.4
X5.1969Y-3.4
X5.0Y-2.2
X5.0984Y-2.2
X5.1969Y-2.2
X5.0Y-2.6
X5.0984Y-2.6
X5.1969Y-2.6
T3
X4.35Y-1.2
X4.35Y-1.3
X4.45Y-1.2
X4.45Y-1.3
X4.55Y-1.2
X4.55Y-1.3
X4.65Y-1.2
X4.65Y-1.3
X4.35Y-2.8
X4.45Y-2.8
X4.55Y-2.8
X4.65Y-2.8
X4.75Y-2.8
X3.2Y-3.6
X3.3Y-3.6
X3.4Y-3.6
X3.5Y-3.6
X3.6Y-3.6
X3.7Y-3.6
X3.8Y-3.6
X3.9Y-3.6
X4.0Y-3.6
X4.1Y-3.6
X4.2Y-3.6
X4.3Y-3.6
X4.4Y-3.6
X4.5Y-3.6
X4.6Y-3.6
X4.7Y-3.6
X3.2Y-2.65
X3.2Y-2.75
X3.2Y-2.85
T4
X3.3Y-2.3
X3.4Y-2.3
X3.5Y-2.3
T0
M30
