%TF.GenerationSoftware,KiCad,Pcbnew,(5.1.6)-1*%
%TF.CreationDate,2020-12-18T19:23:39+01:00*%
%TF.ProjectId,rc-emitter_tft_trim_board,72632d65-6d69-4747-9465-725f7466745f,rev?*%
%TF.SameCoordinates,Original*%
%TF.FileFunction,Copper,L1,Top*%
%TF.FilePolarity,Positive*%
%FSLAX46Y46*%
G04 Gerber Fmt 4.6, Leading zero omitted, Abs format (unit mm)*
G04 Created by KiCad (PCBNEW (5.1.6)-1) date 2020-12-18 19:23:39*
%MOMM*%
%LPD*%
G01*
G04 APERTURE LIST*
%TA.AperFunction,ComponentPad*%
%ADD10C,2.000000*%
%TD*%
%TA.AperFunction,ComponentPad*%
%ADD11O,1.600000X1.600000*%
%TD*%
%TA.AperFunction,ComponentPad*%
%ADD12C,1.600000*%
%TD*%
%TA.AperFunction,ComponentPad*%
%ADD13O,1.700000X1.700000*%
%TD*%
%TA.AperFunction,ComponentPad*%
%ADD14R,1.700000X1.700000*%
%TD*%
%TA.AperFunction,Conductor*%
%ADD15C,0.250000*%
%TD*%
G04 APERTURE END LIST*
D10*
%TO.P,SW2,1*%
%TO.N,Net-(J2-Pad3)*%
X159000000Y-89000000D03*
%TO.P,SW2,2*%
%TO.N,Net-(R1-Pad2)*%
X159000000Y-93500000D03*
%TO.P,SW2,1*%
%TO.N,Net-(J2-Pad3)*%
X152500000Y-89000000D03*
%TO.P,SW2,2*%
%TO.N,Net-(R1-Pad2)*%
X152500000Y-93500000D03*
%TD*%
%TO.P,SW1,1*%
%TO.N,Net-(J2-Pad3)*%
X159000000Y-78500000D03*
%TO.P,SW1,2*%
%TO.N,Net-(J2-Pad2)*%
X159000000Y-83000000D03*
%TO.P,SW1,1*%
%TO.N,Net-(J2-Pad3)*%
X152500000Y-78500000D03*
%TO.P,SW1,2*%
%TO.N,Net-(J2-Pad2)*%
X152500000Y-83000000D03*
%TD*%
D11*
%TO.P,R2,2*%
%TO.N,Net-(J2-Pad1)*%
X150840000Y-97000000D03*
D12*
%TO.P,R2,1*%
%TO.N,Net-(R1-Pad2)*%
X161000000Y-97000000D03*
%TD*%
D11*
%TO.P,R1,2*%
%TO.N,Net-(R1-Pad2)*%
X150840000Y-75000000D03*
D12*
%TO.P,R1,1*%
%TO.N,Net-(J2-Pad2)*%
X161000000Y-75000000D03*
%TD*%
D13*
%TO.P,J2,3*%
%TO.N,Net-(J2-Pad3)*%
X158540000Y-101000000D03*
%TO.P,J2,2*%
%TO.N,Net-(J2-Pad2)*%
X156000000Y-101000000D03*
D14*
%TO.P,J2,1*%
%TO.N,Net-(J2-Pad1)*%
X153460000Y-101000000D03*
%TD*%
D15*
%TO.N,Net-(J2-Pad3)*%
X152500000Y-78500000D02*
X151150000Y-79849500D01*
X151150000Y-79849500D02*
X151150000Y-87650500D01*
X151150000Y-87650500D02*
X152500000Y-89000000D01*
X158540000Y-101000000D02*
X158540000Y-99824700D01*
X158540000Y-99824700D02*
X157674000Y-98958200D01*
X157674000Y-98958200D02*
X157674000Y-90326500D01*
X157674000Y-90326500D02*
X159000000Y-89000000D01*
%TO.N,Net-(J2-Pad2)*%
X156000000Y-86000000D02*
X153000000Y-83000000D01*
X156000000Y-101000000D02*
X156000000Y-86000000D01*
X161000000Y-75000000D02*
X161000000Y-81000000D01*
X161000000Y-81000000D02*
X159000000Y-83000000D01*
X156000000Y-86000000D02*
X159000000Y-83000000D01*
%TO.N,Net-(R1-Pad2)*%
X150699600Y-91699700D02*
X152500000Y-93500000D01*
X150699600Y-89647500D02*
X150699600Y-75000000D01*
X150671000Y-91671100D02*
X150699600Y-91699700D01*
%TD*%
M02*
