%TF.GenerationSoftware,KiCad,Pcbnew,(5.1.6)-1*%
%TF.CreationDate,2020-12-18T19:23:39+01:00*%
%TF.ProjectId,rc-emitter_tft_trim_board,72632d65-6d69-4747-9465-725f7466745f,rev?*%
%TF.SameCoordinates,Original*%
%TF.FileFunction,Legend,Top*%
%TF.FilePolarity,Positive*%
%FSLAX46Y46*%
G04 Gerber Fmt 4.6, Leading zero omitted, Abs format (unit mm)*
G04 Created by KiCad (PCBNEW (5.1.6)-1) date 2020-12-18 19:23:39*
%MOMM*%
%LPD*%
G01*
G04 APERTURE LIST*
%ADD10C,0.300000*%
%ADD11C,0.150000*%
%ADD12C,0.120000*%
G04 APERTURE END LIST*
D10*
X150666666Y-71904761D02*
X150666666Y-69904761D01*
X151333333Y-71333333D01*
X152000000Y-69904761D01*
X152000000Y-71904761D01*
X153714285Y-71809523D02*
X153523809Y-71904761D01*
X153142857Y-71904761D01*
X152952380Y-71809523D01*
X152857142Y-71619047D01*
X152857142Y-70857142D01*
X152952380Y-70666666D01*
X153142857Y-70571428D01*
X153523809Y-70571428D01*
X153714285Y-70666666D01*
X153809523Y-70857142D01*
X153809523Y-71047619D01*
X152857142Y-71238095D01*
X155523809Y-70571428D02*
X155523809Y-72190476D01*
X155428571Y-72380952D01*
X155333333Y-72476190D01*
X155142857Y-72571428D01*
X154857142Y-72571428D01*
X154666666Y-72476190D01*
X155523809Y-71809523D02*
X155333333Y-71904761D01*
X154952380Y-71904761D01*
X154761904Y-71809523D01*
X154666666Y-71714285D01*
X154571428Y-71523809D01*
X154571428Y-70952380D01*
X154666666Y-70761904D01*
X154761904Y-70666666D01*
X154952380Y-70571428D01*
X155333333Y-70571428D01*
X155523809Y-70666666D01*
X157333333Y-71904761D02*
X157333333Y-70857142D01*
X157238095Y-70666666D01*
X157047619Y-70571428D01*
X156666666Y-70571428D01*
X156476190Y-70666666D01*
X157333333Y-71809523D02*
X157142857Y-71904761D01*
X156666666Y-71904761D01*
X156476190Y-71809523D01*
X156380952Y-71619047D01*
X156380952Y-71428571D01*
X156476190Y-71238095D01*
X156666666Y-71142857D01*
X157142857Y-71142857D01*
X157333333Y-71047619D01*
X159428571Y-71904761D02*
X158761904Y-70952380D01*
X158285714Y-71904761D02*
X158285714Y-69904761D01*
X159047619Y-69904761D01*
X159238095Y-70000000D01*
X159333333Y-70095238D01*
X159428571Y-70285714D01*
X159428571Y-70571428D01*
X159333333Y-70761904D01*
X159238095Y-70857142D01*
X159047619Y-70952380D01*
X158285714Y-70952380D01*
X161428571Y-71714285D02*
X161333333Y-71809523D01*
X161047619Y-71904761D01*
X160857142Y-71904761D01*
X160571428Y-71809523D01*
X160380952Y-71619047D01*
X160285714Y-71428571D01*
X160190476Y-71047619D01*
X160190476Y-70761904D01*
X160285714Y-70380952D01*
X160380952Y-70190476D01*
X160571428Y-70000000D01*
X160857142Y-69904761D01*
X161047619Y-69904761D01*
X161333333Y-70000000D01*
X161428571Y-70095238D01*
D11*
X150033333Y-61650000D02*
X149966666Y-61616666D01*
X149866666Y-61616666D01*
X149766666Y-61650000D01*
X149700000Y-61716666D01*
X149666666Y-61783333D01*
X149633333Y-61916666D01*
X149633333Y-62016666D01*
X149666666Y-62150000D01*
X149700000Y-62216666D01*
X149766666Y-62283333D01*
X149866666Y-62316666D01*
X149933333Y-62316666D01*
X150033333Y-62283333D01*
X150066666Y-62250000D01*
X150066666Y-62016666D01*
X149933333Y-62016666D01*
X150366666Y-62316666D02*
X150366666Y-61616666D01*
X150766666Y-62316666D01*
X150766666Y-61616666D01*
X151100000Y-61616666D02*
X151100000Y-62183333D01*
X151133333Y-62250000D01*
X151166666Y-62283333D01*
X151233333Y-62316666D01*
X151366666Y-62316666D01*
X151433333Y-62283333D01*
X151466666Y-62250000D01*
X151500000Y-62183333D01*
X151500000Y-61616666D01*
X152733333Y-61650000D02*
X152666666Y-61616666D01*
X152566666Y-61616666D01*
X152466666Y-61650000D01*
X152400000Y-61716666D01*
X152366666Y-61783333D01*
X152333333Y-61916666D01*
X152333333Y-62016666D01*
X152366666Y-62150000D01*
X152400000Y-62216666D01*
X152466666Y-62283333D01*
X152566666Y-62316666D01*
X152633333Y-62316666D01*
X152733333Y-62283333D01*
X152766666Y-62250000D01*
X152766666Y-62016666D01*
X152633333Y-62016666D01*
X153066666Y-62316666D02*
X153066666Y-61616666D01*
X153333333Y-61616666D01*
X153400000Y-61650000D01*
X153433333Y-61683333D01*
X153466666Y-61750000D01*
X153466666Y-61850000D01*
X153433333Y-61916666D01*
X153400000Y-61950000D01*
X153333333Y-61983333D01*
X153066666Y-61983333D01*
X154100000Y-62316666D02*
X153766666Y-62316666D01*
X153766666Y-61616666D01*
X154766666Y-61616666D02*
X155000000Y-62316666D01*
X155233333Y-61616666D01*
X155400000Y-61616666D02*
X155833333Y-61616666D01*
X155600000Y-61883333D01*
X155700000Y-61883333D01*
X155766666Y-61916666D01*
X155800000Y-61950000D01*
X155833333Y-62016666D01*
X155833333Y-62183333D01*
X155800000Y-62250000D01*
X155766666Y-62283333D01*
X155700000Y-62316666D01*
X155500000Y-62316666D01*
X155433333Y-62283333D01*
X155400000Y-62250000D01*
X156633333Y-61683333D02*
X156666666Y-61650000D01*
X156733333Y-61616666D01*
X156900000Y-61616666D01*
X156966666Y-61650000D01*
X157000000Y-61683333D01*
X157033333Y-61750000D01*
X157033333Y-61816666D01*
X157000000Y-61916666D01*
X156600000Y-62316666D01*
X157033333Y-62316666D01*
X157366666Y-62316666D02*
X157500000Y-62316666D01*
X157566666Y-62283333D01*
X157600000Y-62250000D01*
X157666666Y-62150000D01*
X157700000Y-62016666D01*
X157700000Y-61750000D01*
X157666666Y-61683333D01*
X157633333Y-61650000D01*
X157566666Y-61616666D01*
X157433333Y-61616666D01*
X157366666Y-61650000D01*
X157333333Y-61683333D01*
X157300000Y-61750000D01*
X157300000Y-61916666D01*
X157333333Y-61983333D01*
X157366666Y-62016666D01*
X157433333Y-62050000D01*
X157566666Y-62050000D01*
X157633333Y-62016666D01*
X157666666Y-61983333D01*
X157700000Y-61916666D01*
X158000000Y-62250000D02*
X158033333Y-62283333D01*
X158000000Y-62316666D01*
X157966666Y-62283333D01*
X158000000Y-62250000D01*
X158000000Y-62316666D01*
X158466666Y-61616666D02*
X158533333Y-61616666D01*
X158600000Y-61650000D01*
X158633333Y-61683333D01*
X158666666Y-61750000D01*
X158700000Y-61883333D01*
X158700000Y-62050000D01*
X158666666Y-62183333D01*
X158633333Y-62250000D01*
X158600000Y-62283333D01*
X158533333Y-62316666D01*
X158466666Y-62316666D01*
X158400000Y-62283333D01*
X158366666Y-62250000D01*
X158333333Y-62183333D01*
X158300000Y-62050000D01*
X158300000Y-61883333D01*
X158333333Y-61750000D01*
X158366666Y-61683333D01*
X158400000Y-61650000D01*
X158466666Y-61616666D01*
X159300000Y-61616666D02*
X159166666Y-61616666D01*
X159100000Y-61650000D01*
X159066666Y-61683333D01*
X159000000Y-61783333D01*
X158966666Y-61916666D01*
X158966666Y-62183333D01*
X159000000Y-62250000D01*
X159033333Y-62283333D01*
X159100000Y-62316666D01*
X159233333Y-62316666D01*
X159300000Y-62283333D01*
X159333333Y-62250000D01*
X159366666Y-62183333D01*
X159366666Y-62016666D01*
X159333333Y-61950000D01*
X159300000Y-61916666D01*
X159233333Y-61883333D01*
X159100000Y-61883333D01*
X159033333Y-61916666D01*
X159000000Y-61950000D01*
X158966666Y-62016666D01*
X159666666Y-62250000D02*
X159700000Y-62283333D01*
X159666666Y-62316666D01*
X159633333Y-62283333D01*
X159666666Y-62250000D01*
X159666666Y-62316666D01*
X159966666Y-61683333D02*
X160000000Y-61650000D01*
X160066666Y-61616666D01*
X160233333Y-61616666D01*
X160300000Y-61650000D01*
X160333333Y-61683333D01*
X160366666Y-61750000D01*
X160366666Y-61816666D01*
X160333333Y-61916666D01*
X159933333Y-62316666D01*
X160366666Y-62316666D01*
X160800000Y-61616666D02*
X160866666Y-61616666D01*
X160933333Y-61650000D01*
X160966666Y-61683333D01*
X161000000Y-61750000D01*
X161033333Y-61883333D01*
X161033333Y-62050000D01*
X161000000Y-62183333D01*
X160966666Y-62250000D01*
X160933333Y-62283333D01*
X160866666Y-62316666D01*
X160800000Y-62316666D01*
X160733333Y-62283333D01*
X160700000Y-62250000D01*
X160666666Y-62183333D01*
X160633333Y-62050000D01*
X160633333Y-61883333D01*
X160666666Y-61750000D01*
X160700000Y-61683333D01*
X160733333Y-61650000D01*
X160800000Y-61616666D01*
X161466666Y-61616666D02*
X161533333Y-61616666D01*
X161600000Y-61650000D01*
X161633333Y-61683333D01*
X161666666Y-61750000D01*
X161700000Y-61883333D01*
X161700000Y-62050000D01*
X161666666Y-62183333D01*
X161633333Y-62250000D01*
X161600000Y-62283333D01*
X161533333Y-62316666D01*
X161466666Y-62316666D01*
X161400000Y-62283333D01*
X161366666Y-62250000D01*
X161333333Y-62183333D01*
X161300000Y-62050000D01*
X161300000Y-61883333D01*
X161333333Y-61750000D01*
X161366666Y-61683333D01*
X161400000Y-61650000D01*
X161466666Y-61616666D01*
X161933333Y-61616666D02*
X162400000Y-61616666D01*
X162100000Y-62316666D01*
X151380952Y-112452380D02*
X151380952Y-113166666D01*
X151333333Y-113309523D01*
X151238095Y-113404761D01*
X151095238Y-113452380D01*
X151000000Y-113452380D01*
X152333333Y-113452380D02*
X151857142Y-113452380D01*
X151857142Y-112452380D01*
X153238095Y-113357142D02*
X153190476Y-113404761D01*
X153047619Y-113452380D01*
X152952380Y-113452380D01*
X152809523Y-113404761D01*
X152714285Y-113309523D01*
X152666666Y-113214285D01*
X152619047Y-113023809D01*
X152619047Y-112880952D01*
X152666666Y-112690476D01*
X152714285Y-112595238D01*
X152809523Y-112500000D01*
X152952380Y-112452380D01*
X153047619Y-112452380D01*
X153190476Y-112500000D01*
X153238095Y-112547619D01*
X153952380Y-112452380D02*
X153952380Y-113166666D01*
X153904761Y-113309523D01*
X153809523Y-113404761D01*
X153666666Y-113452380D01*
X153571428Y-113452380D01*
X154904761Y-113452380D02*
X154428571Y-113452380D01*
X154428571Y-112452380D01*
X155809523Y-113357142D02*
X155761904Y-113404761D01*
X155619047Y-113452380D01*
X155523809Y-113452380D01*
X155380952Y-113404761D01*
X155285714Y-113309523D01*
X155238095Y-113214285D01*
X155190476Y-113023809D01*
X155190476Y-112880952D01*
X155238095Y-112690476D01*
X155285714Y-112595238D01*
X155380952Y-112500000D01*
X155523809Y-112452380D01*
X155619047Y-112452380D01*
X155761904Y-112500000D01*
X155809523Y-112547619D01*
X156523809Y-112452380D02*
X156523809Y-113166666D01*
X156476190Y-113309523D01*
X156380952Y-113404761D01*
X156238095Y-113452380D01*
X156142857Y-113452380D01*
X157476190Y-113452380D02*
X157000000Y-113452380D01*
X157000000Y-112452380D01*
X158380952Y-113357142D02*
X158333333Y-113404761D01*
X158190476Y-113452380D01*
X158095238Y-113452380D01*
X157952380Y-113404761D01*
X157857142Y-113309523D01*
X157809523Y-113214285D01*
X157761904Y-113023809D01*
X157761904Y-112880952D01*
X157809523Y-112690476D01*
X157857142Y-112595238D01*
X157952380Y-112500000D01*
X158095238Y-112452380D01*
X158190476Y-112452380D01*
X158333333Y-112500000D01*
X158380952Y-112547619D01*
X159095238Y-112452380D02*
X159095238Y-113166666D01*
X159047619Y-113309523D01*
X158952380Y-113404761D01*
X158809523Y-113452380D01*
X158714285Y-113452380D01*
X160047619Y-113452380D02*
X159571428Y-113452380D01*
X159571428Y-112452380D01*
X160952380Y-113357142D02*
X160904761Y-113404761D01*
X160761904Y-113452380D01*
X160666666Y-113452380D01*
X160523809Y-113404761D01*
X160428571Y-113309523D01*
X160380952Y-113214285D01*
X160333333Y-113023809D01*
X160333333Y-112880952D01*
X160380952Y-112690476D01*
X160428571Y-112595238D01*
X160523809Y-112500000D01*
X160666666Y-112452380D01*
X160761904Y-112452380D01*
X160904761Y-112500000D01*
X160952380Y-112547619D01*
X155476190Y-104452380D02*
X155476190Y-103452380D01*
X155952380Y-104452380D02*
X155952380Y-103452380D01*
X156523809Y-104452380D01*
X156523809Y-103452380D01*
X151000000Y-103452380D02*
X151190476Y-103452380D01*
X151285714Y-103500000D01*
X151380952Y-103595238D01*
X151428571Y-103785714D01*
X151428571Y-104119047D01*
X151380952Y-104309523D01*
X151285714Y-104404761D01*
X151190476Y-104452380D01*
X151000000Y-104452380D01*
X150904761Y-104404761D01*
X150809523Y-104309523D01*
X150761904Y-104119047D01*
X150761904Y-103785714D01*
X150809523Y-103595238D01*
X150904761Y-103500000D01*
X151000000Y-103452380D01*
X151857142Y-103452380D02*
X151857142Y-104261904D01*
X151904761Y-104357142D01*
X151952380Y-104404761D01*
X152047619Y-104452380D01*
X152238095Y-104452380D01*
X152333333Y-104404761D01*
X152380952Y-104357142D01*
X152428571Y-104261904D01*
X152428571Y-103452380D01*
X152761904Y-103452380D02*
X153333333Y-103452380D01*
X153047619Y-104452380D02*
X153047619Y-103452380D01*
X158666666Y-103452380D02*
X159000000Y-104452380D01*
X159333333Y-103452380D01*
X160238095Y-104357142D02*
X160190476Y-104404761D01*
X160047619Y-104452380D01*
X159952380Y-104452380D01*
X159809523Y-104404761D01*
X159714285Y-104309523D01*
X159666666Y-104214285D01*
X159619047Y-104023809D01*
X159619047Y-103880952D01*
X159666666Y-103690476D01*
X159714285Y-103595238D01*
X159809523Y-103500000D01*
X159952380Y-103452380D01*
X160047619Y-103452380D01*
X160190476Y-103500000D01*
X160238095Y-103547619D01*
X161238095Y-104357142D02*
X161190476Y-104404761D01*
X161047619Y-104452380D01*
X160952380Y-104452380D01*
X160809523Y-104404761D01*
X160714285Y-104309523D01*
X160666666Y-104214285D01*
X160619047Y-104023809D01*
X160619047Y-103880952D01*
X160666666Y-103690476D01*
X160714285Y-103595238D01*
X160809523Y-103500000D01*
X160952380Y-103452380D01*
X161047619Y-103452380D01*
X161190476Y-103500000D01*
X161238095Y-103547619D01*
D12*
%TO.C,SW2*%
X159250000Y-92000000D02*
X159250000Y-90500000D01*
X158000000Y-88000000D02*
X153500000Y-88000000D01*
X152250000Y-90500000D02*
X152250000Y-92000000D01*
X153500000Y-94500000D02*
X158000000Y-94500000D01*
%TO.C,SW1*%
X159250000Y-81500000D02*
X159250000Y-80000000D01*
X158000000Y-77500000D02*
X153500000Y-77500000D01*
X152250000Y-80000000D02*
X152250000Y-81500000D01*
X153500000Y-84000000D02*
X158000000Y-84000000D01*
%TO.C,SW2*%
D11*
X154416666Y-87404761D02*
X154559523Y-87452380D01*
X154797619Y-87452380D01*
X154892857Y-87404761D01*
X154940476Y-87357142D01*
X154988095Y-87261904D01*
X154988095Y-87166666D01*
X154940476Y-87071428D01*
X154892857Y-87023809D01*
X154797619Y-86976190D01*
X154607142Y-86928571D01*
X154511904Y-86880952D01*
X154464285Y-86833333D01*
X154416666Y-86738095D01*
X154416666Y-86642857D01*
X154464285Y-86547619D01*
X154511904Y-86500000D01*
X154607142Y-86452380D01*
X154845238Y-86452380D01*
X154988095Y-86500000D01*
X155321428Y-86452380D02*
X155559523Y-87452380D01*
X155750000Y-86738095D01*
X155940476Y-87452380D01*
X156178571Y-86452380D01*
X156511904Y-86547619D02*
X156559523Y-86500000D01*
X156654761Y-86452380D01*
X156892857Y-86452380D01*
X156988095Y-86500000D01*
X157035714Y-86547619D01*
X157083333Y-86642857D01*
X157083333Y-86738095D01*
X157035714Y-86880952D01*
X156464285Y-87452380D01*
X157083333Y-87452380D01*
%TO.C,SW1*%
X154416666Y-76904761D02*
X154559523Y-76952380D01*
X154797619Y-76952380D01*
X154892857Y-76904761D01*
X154940476Y-76857142D01*
X154988095Y-76761904D01*
X154988095Y-76666666D01*
X154940476Y-76571428D01*
X154892857Y-76523809D01*
X154797619Y-76476190D01*
X154607142Y-76428571D01*
X154511904Y-76380952D01*
X154464285Y-76333333D01*
X154416666Y-76238095D01*
X154416666Y-76142857D01*
X154464285Y-76047619D01*
X154511904Y-76000000D01*
X154607142Y-75952380D01*
X154845238Y-75952380D01*
X154988095Y-76000000D01*
X155321428Y-75952380D02*
X155559523Y-76952380D01*
X155750000Y-76238095D01*
X155940476Y-76952380D01*
X156178571Y-75952380D01*
X157083333Y-76952380D02*
X156511904Y-76952380D01*
X156797619Y-76952380D02*
X156797619Y-75952380D01*
X156702380Y-76095238D01*
X156607142Y-76190476D01*
X156511904Y-76238095D01*
%TD*%
M02*
